<svg xmlns="http://www.w3.org/2000/svg" version="1.0" preserveAspectRatio="xMidYMid meet" viewBox="372 263.07 308.98 369.66">
<metadata>
Created by potrace 1.10, written by Peter Selinger 2001-2011
</metadata>
<g transform="translate(0.000000,816.000000) scale(0.100000,-0.100000)" fill="#000000" stroke="none">
<path d="M4019 5516 c-93 -26 -187 -103 -244 -200 -50 -86 -54 -127 -55 -568 0 -433 3 -466 50 -558 30 -59 115 -139 192 -181 l63 -34 1240 0 1240 0 66 33 c78 38 163 122 205 203 l29 54 0 480 c0 454 -1 483 -19 525 -34 78 -106 159 -182 205 -94 57 -36 55 -1339 54 -932 -1 -1210 -4 -1246 -13z"/>
<path d="M4368 3516 c-46 -24 -105 -57 -133 -73 -27 -16 -57 -32 -65 -36 -17 -9 -39 -22 -97 -60 -24 -15 -45 -27 -48 -27 -23 0 -199 -117 -222 -148 -69 -88 -68 -80 -68 -472 l0 -355 29 -54 c15 -30 45 -71 67 -90 32 -31 182 -120 394 -237 28 -15 68 -39 90 -53 70 -44 108 -61 166 -73 73 -15 148 2 228 50 31 19 81 49 112 66 416 234 450 258 488 361 20 53 21 75 20 388 -1 373 -3 389 -71 471 -21 24 -64 59 -95 77 -32 18 -105 60 -163 94 -135 80 -185 107 -298 166 -88 47 -97 49 -172 49 -74 0 -84 -3 -162 -44z"/>
<path d="M6206 3533 c-10 -3 -39 -17 -65 -33 -26 -15 -69 -40 -97 -55 -27 -15 -80 -46 -117 -69 -38 -22 -80 -48 -95 -57 -15 -8 -40 -35 -57 -58 l-30 -43 -3 -251 -2 -252 27 -50 c23 -40 44 -59 108 -99 150 -93 340 -194 377 -200 45 -8 87 8 238 92 237 133 292 176 310 242 13 47 13 465 0 512 -13 45 -57 92 -125 133 -122 73 -142 85 -175 103 -142 79 -173 92 -224 91 -28 -1 -59 -3 -70 -6z"/>
</g>
</svg>